<svg width="1200" height="1000" viewBox="0 0 1200 1000" xmlns="http://www.w3.org/2000/svg">
  <defs>
    <marker id="arrowhead" markerWidth="10" markerHeight="7" refX="0" refY="3.5" orient="auto">
      <polygon points="0 0, 10 3.5, 0 7" fill="#333" />
    </marker>
    <style type="text/css"><![CDATA[
      .user-interface { fill: #E3F2FD; stroke: #90CAF9; }
      .core-engine { fill: #FFF9C4; stroke: #FFF176; }
      .ai-layer { fill: #C8E6C9; stroke: #A5D6A7; }
      .data-layer { fill: #FFCCBC; stroke: #FFAB91; }
      .external-service { fill: #D1C4E9; stroke: #B39DDB; }
      .support-component { fill: #CFD8DC; stroke: #B0BEC5; }
      .text-main { font-family: Arial, sans-serif; font-size: 12px; fill: #212121; }
      .text-small { font-family: Arial, sans-serif; font-size: 10px; fill: #424242; }
      .text-label { font-family: Arial, sans-serif; font-size: 11px; fill: #333; font-weight: bold; }
      .connector { stroke: #616161; stroke-width: 1.5; marker-end: url(#arrowhead); fill: none; }
      .dashed-connector { stroke: #616161; stroke-width: 1.5; marker-end: url(#arrowhead); fill: none; stroke-dasharray: 5,5; }
    ]]></style>
  </defs>

  <text x="600" y="30" text-anchor="middle" font-family="Arial, sans-serif" font-size="20px" font-weight="bold" fill="#333">WebScrapeToolkit Workflow Diagram</text>

  <g id="ui-layer">
    <rect x="50" y="80" width="200" height="100" rx="10" ry="10" class="user-interface" />
    <text x="150" y="100" text-anchor="middle" class="text-label">Web UI (Flask)</text>
    <text x="150" y="120" text-anchor="middle" class="text-main">web_ui.py</text>
    <text x="150" y="140" text-anchor="middle" class="text-small">(scraper.html, chat.html)</text>
    <text x="150" y="160" text-anchor="middle" class="text-small">User Interaction</text>

    <rect x="300" y="80" width="200" height="100" rx="10" ry="10" class="user-interface" />
    <text x="400" y="100" text-anchor="middle" class="text-label">CLI Chatbot</text>
    <text x="400" y="120" text-anchor="middle" class="text-main">chatbot.py</text>
    <text x="400" y="140" text-anchor="middle" class="text-small">(WebScrapingChatbot)</text>
    <text x="400" y="160" text-anchor="middle" class="text-small">User Interaction (CLI)</text>

    <rect x="550" y="80" width="200" height="100" rx="10" ry="10" class="user-interface" />
    <text x="650" y="100" text-anchor="middle" class="text-label">Direct CLI</text>
    <text x="650" y="120" text-anchor="middle" class="text-main">main.py</text>
    <text x="650" y="140" text-anchor="middle" class="text-small">(Script-based scraping)</text>
    <text x="650" y="160" text-anchor="middle" class="text-small">User Interaction (CLI)</text>
  </g>

  <g id="core-engine-layer">
    <rect x="300" y="250" width="300" height="80" rx="10" ry="10" class="core-engine" />
    <text x="450" y="270" text-anchor="middle" class="text-label">Core Scraping Engine</text>
    <text x="450" y="290" text-anchor="middle" class="text-main">web_scraper.py (WebScraper)</text>
    <text x="450" y="310" text-anchor="middle" class="text-small">HTTP, Parse, robots.txt, Rate Limit</text>
  </g>

  <g id="ai-layer-group">
    <rect x="300" y="400" width="300" height="100" rx="10" ry="10" class="ai-layer" />
    <text x="450" y="420" text-anchor="middle" class="text-label">AI Enhancement Layer</text>
    <text x="450" y="440" text-anchor="middle" class="text-main">ai_enhanced_scraper.py</text>
    <text x="450" y="460" text-anchor="middle" class="text-small">(AIEnhancedScraper)</text>
    <text x="450" y="480" text-anchor="middle" class="text-small">ai_integration_guide.py</text>

    <ellipse cx="150" cy="450" rx="100" ry="40" class="external-service" />
    <text x="150" y="445" text-anchor="middle" class="text-label">External AI APIs</text>
    <text x="150" y="460" text-anchor="middle" class="text-small">(OpenAI, Anthropic,</text>
    <text x="150" y="475" text-anchor="middle" class="text-small">Google Gemini)</text>
  </g>

  <g id="data-layer-group">
    <rect x="300" y="570" width="300" height="80" rx="10" ry="10" class="data-layer" />
    <text x="450" y="590" text-anchor="middle" class="text-label">Data Management</text>
    <text x="450" y="610" text-anchor="middle" class="text-main">database_service.py</text>
    <text x="450" y="630" text-anchor="middle" class="text-small">models.py (SQLAlchemy)</text>

    <ellipse cx="450" cy="720" rx="100" ry="40" class="external-service" />
    <text x="450" y="715" text-anchor="middle" class="text-label">PostgreSQL DB</text>
    <text x="450" y="730" text-anchor="middle" class="text-small">(Sessions, Scraped Data,</text>
    <text x="450" y="745" text-anchor="middle" class="text-small">Entities, Links)</text>
  </g>

  <g id="support-layer">
    <rect x="800" y="250" width="200" height="60" rx="10" ry="10" class="support-component" />
    <text x="900" y="270" text-anchor="middle" class="text-label">Utilities</text>
    <text x="900" y="290" text-anchor="middle" class="text-main">utils.py</text>

    <rect x="800" y="330" width="200" height="80" rx="10" ry="10" class="support-component" />
    <text x="900" y="350" text-anchor="middle" class="text-label">Example Scripts</text>
    <text x="900" y="370" text-anchor="middle" class="text-main">scraper_examples.py</text>
    <text x="900" y="390" text-anchor="middle" class="text-main">ai_examples.py</text>
  </g>

  <path class="connector" d="M150,180 Q150,230 300,260" /> <text x="200" y="220" class="text-small">Scrape Request</text>
  <path class="connector" d="M400,180 Q400,230 380,250" /> <text x="350" y="220" class="text-small">Scrape Cmd</text>
  <path class="connector" d="M650,180 Q650,230 600,260" /> <text x="600" y="220" class="text-small">Scrape Args</text>

  <path class="connector" d="M250,130 C 270,200 300,200 350,180" />
   <text x="280" y="160" class="text-small">Chat Request</text>
   <text x="280" y="175" class="text-small">(via chatbot.py)</text>


  <path class="connector" d="M450,330 V390" />
  <text x="460" y="365" class="text-small">Scraped Content</text>

  <path class="connector" d="M300,450 H250" />
  <text x="260" y="435" class="text-small">API Call</text>
  <path class="connector" d="M250,460 H300" />
  <text x="260" y="485" class="text-small">AI Analysis</text>

  <path class="connector" d="M450,500 V560" />
  <text x="460" y="535" class="text-small">Analyzed Data</text>

  <path class="dashed-connector" d="M580,300 C650,400 600,550 500,570" />
  <text x="600" y="450" class="text-small">Raw Scraped Data (No AI)</text>

  <path class="connector" d="M450,650 V680" />
  <text x="460" y="670" class="text-small">DB Operations</text>

  <path class="connector" d="M300,610 Q200,610 150,180" />
  <text x="200" y="500" class="text-small">Results/History to Web UI</text>

  <path class="connector" d="M600,610 Q700,610 450,180" />
  <text x="550" y="500" class="text-small">Results/History to Chatbot</text>


  <path class="dashed-connector" d="M800,280 H600" />
  <text x="700" y="275" class="text-small">Util Functions</text>
  <path class="dashed-connector" d="M800,280 C750,350 650,380 600,430" />
  <path class="dashed-connector" d="M800,280 C750,450 650,500 600,580" />

  <path class="dashed-connector" d="M800,370 H600" />
  <text x="700" y="365" class="text-small">Use Core/AI</text>


  <g transform="translate(800, 500)">
    <text x="0" y="0" font-weight="bold" class="text-label">Legend</text>
    <rect x="0" y="20" width="20" height="20" class="user-interface" />
    <text x="30" y="35" class="text-main">User Interface Layer</text>
    <rect x="0" y="50" width="20" height="20" class="core-engine" />
    <text x="30" y="65" class="text-main">Core Scraping Engine</text>
    <rect x="0" y="80" width="20" height="20" class="ai-layer" />
    <text x="30" y="95" class="text-main">AI Enhancement Layer</text>
    <rect x="0" y="110" width="20" height="20" class="data-layer" />
    <text x="30" y="125" class="text-main">Data Management Layer</text>
    <ellipse cx="10" cy="150" rx="10" ry="10" class="external-service" />
    <text x="30" y="155" class="text-main">External Service / Database</text>
    <rect x="0" y="170" width="20" height="20" class="support-component" />
    <text x="30" y="185" class="text-main">Supporting Component</text>
    <line x1="0" y1="210" x2="20" y2="210" class="connector" />
    <text x="30" y="215" class="text-main">Data/Control Flow</text>
    <line x1="0" y1="230" x2="20" y2="230" class="dashed-connector" />
    <text x="30" y="235" class="text-main">Usage / Helper Flow</text>
  </g>

</svg>
